<?xml version="1.0" encoding="UTF-8" standalone="no"?>
<!-- Created with Inkscape (http://www.inkscape.org/) -->

<svg
   xmlns:dc="http://purl.org/dc/elements/1.1/"
   xmlns:cc="http://creativecommons.org/ns#"
   xmlns:rdf="http://www.w3.org/1999/02/22-rdf-syntax-ns#"
   xmlns:svg="http://www.w3.org/2000/svg"
   xmlns="http://www.w3.org/2000/svg"
   xmlns:sodipodi="http://sodipodi.sourceforge.net/DTD/sodipodi-0.dtd"
   xmlns:inkscape="http://www.inkscape.org/namespaces/inkscape"
   id="svg2984"
   version="1.1"
   inkscape:version="0.48.4 r9939"
   width="1234.2434"
   height="1052.5366"
   xml:space="preserve"
   sodipodi:docname="gen_behav_detector.svg"><metadata
     id="metadata2990"><rdf:RDF><cc:Work
         rdf:about=""><dc:format>image/svg+xml</dc:format><dc:type
           rdf:resource="http://purl.org/dc/dcmitype/StillImage" /><dc:title></dc:title></cc:Work></rdf:RDF></metadata><defs
     id="defs2988" /><sodipodi:namedview
     pagecolor="#ffffff"
     bordercolor="#666666"
     borderopacity="1"
     objecttolerance="10"
     gridtolerance="10"
     guidetolerance="10"
     inkscape:pageopacity="0"
     inkscape:pageshadow="2"
     inkscape:window-width="1920"
     inkscape:window-height="1027"
     id="namedview2986"
     showgrid="false"
     inkscape:zoom="0.4516269"
     inkscape:cx="-368.96233"
     inkscape:cy="341.84794"
     inkscape:window-x="-8"
     inkscape:window-y="22"
     inkscape:window-maximized="1"
     inkscape:current-layer="g2992"
     fit-margin-top="5"
     fit-margin-left="5"
     fit-margin-right="5"
     fit-margin-bottom="5" /><g
     id="g2992"
     inkscape:groupmode="layer"
     inkscape:label="gen_behav_det"
     transform="matrix(1.25,0,0,-1.25,5,1047.5347)"><g
   transform="matrix(0.978043,1,0.583188,-0.59628,0,836.08838)"
   id="g2996"><path
     inkscape:connector-curvature="0"
     id="path2998"
     style="fill:#e6e6e6;fill-opacity:1;fill-rule:nonzero;stroke:#000000;stroke-width:2.4691081;stroke-linecap:butt;stroke-linejoin:miter;stroke-miterlimit:4;stroke-opacity:1;stroke-dasharray:none"
     d="m 202.094,770.508 c 0,283.638 -92.86,513.572 -207.407,513.572 -114.547,10e-4 -207.405,-229.932 -207.404,-513.571 0,-283.639 92.858,-513.576 207.405,-513.577 114.179,0 206.884,228.516 207.403,511.244" /></g><path
   inkscape:connector-curvature="0"
   id="path3000"
   style="fill:#ffffff;fill-opacity:1;fill-rule:nonzero;stroke:#000000;stroke-width:4;stroke-linecap:butt;stroke-linejoin:miter;stroke-miterlimit:4;stroke-opacity:1;stroke-dasharray:none"
   d="m 299.0687,681.06794 176,0 0,-96 -176,0 0,96 z" /><path
   inkscape:connector-curvature="0"
   id="path3014"
   style="fill:#ffffff;fill-opacity:1;fill-rule:nonzero;stroke:#000000;stroke-width:4.25559378;stroke-linecap:butt;stroke-linejoin:miter;stroke-miterlimit:4;stroke-opacity:1;stroke-dasharray:none"
   d="m 294.71005,445.59264 182.8299,0 0,-104.60128 -182.8299,0 0,104.60128 z" /><path
   inkscape:connector-curvature="0"
   id="path3020"
   style="fill:none;stroke:#000000;stroke-width:4;stroke-linecap:butt;stroke-linejoin:miter;stroke-miterlimit:4;stroke-opacity:1;stroke-dasharray:none"
   d="m 1.988,211.788 176,0 0,-96 -176,0 0,96 z" /><path
   inkscape:connector-curvature="0"
   id="path3028"
   style="fill:#ffffff;fill-opacity:1;fill-rule:nonzero;stroke:#000000;stroke-width:4;stroke-linecap:butt;stroke-linejoin:miter;stroke-miterlimit:4;stroke-opacity:1;stroke-dasharray:none"
   d="m 594.531,211.788 176,0 0,-96 -176,0 0,96 z" /><path
   inkscape:connector-curvature="0"
   id="path3034"
   style="fill:#ffffff;fill-opacity:1;fill-rule:nonzero;stroke:#000000;stroke-width:4;stroke-linecap:butt;stroke-linejoin:miter;stroke-miterlimit:4;stroke-opacity:1;stroke-dasharray:none"
   d="m 450.27,112.534 c 0,-11.782 -28.653,-21.332 -64,-21.332 -35.344,0 -64,9.55 -64,21.332 0,11.785 28.656,21.336 64,21.336 35.347,0 64,-9.551 64,-21.336 z" /><path
   inkscape:connector-curvature="0"
   id="path3036"
   style="fill:#ffffff;fill-opacity:1;fill-rule:nonzero;stroke:#ffffff;stroke-width:5.32922506;stroke-linecap:butt;stroke-linejoin:miter;stroke-miterlimit:4;stroke-opacity:1;stroke-dasharray:none"
   d="m 322.934,230.112 126.672,0 0,-114.793 -126.672,0 0,114.793 z" /><path
   inkscape:connector-curvature="0"
   id="path3038"
   style="fill:none;stroke:#000000;stroke-width:4;stroke-linecap:butt;stroke-linejoin:miter;stroke-miterlimit:4;stroke-opacity:1;stroke-dasharray:none"
   d="m 322.25,111.28 0,119.515" /><path
   inkscape:connector-curvature="0"
   id="path3040"
   style="fill:none;stroke:#000000;stroke-width:4;stroke-linecap:butt;stroke-linejoin:miter;stroke-miterlimit:4;stroke-opacity:1;stroke-dasharray:none"
   d="m 450.25,111.28 0,119.515" /><path
   inkscape:connector-curvature="0"
   id="path3056"
   style="fill:none;stroke:#000000;stroke-width:4;stroke-linecap:butt;stroke-linejoin:miter;stroke-miterlimit:4;stroke-opacity:1;stroke-dasharray:none"
   d="m 296.082,393.889 -206.16,0 0,-173.496" /><g
   transform="matrix(0,1,1,0,0,836.08838)"
   id="g3058"><path
     inkscape:connector-curvature="0"
     id="path3060"
     style="fill:#000000;fill-opacity:1;fill-rule:evenodd;stroke:#000000;stroke-width:2;stroke-linecap:butt;stroke-linejoin:miter;stroke-miterlimit:4;stroke-opacity:1;stroke-dasharray:none"
     d="m -599.695,89.922 8,-8 -28,8 28,8 -8,-8 z" /></g><path
   inkscape:connector-curvature="0"
   id="path3062"
   style="fill:none;stroke:#000000;stroke-width:4;stroke-linecap:butt;stroke-linejoin:miter;stroke-miterlimit:4;stroke-opacity:1;stroke-dasharray:none"
   d="m 475.633,393.889 206.16,0 0,-173.496" /><g
   transform="matrix(0,1,1,0,0,836.08838)"
   id="g3064"><path
     inkscape:connector-curvature="0"
     id="path3066"
     style="fill:#000000;fill-opacity:1;fill-rule:evenodd;stroke:#000000;stroke-width:2;stroke-linecap:butt;stroke-linejoin:miter;stroke-miterlimit:4;stroke-opacity:1;stroke-dasharray:none"
     d="m -599.695,681.793 8,-8 -28,8 28,8 -8,-8 z" /></g><path
   inkscape:connector-curvature="0"
   id="path3068"
   style="fill:none;stroke:#000000;stroke-width:3.91813707;stroke-linecap:butt;stroke-linejoin:miter;stroke-miterlimit:4;stroke-opacity:1;stroke-dasharray:none"
   d="m 177.633,162.674 137.363,0" /><path
   inkscape:connector-curvature="0"
   id="path3070"
   style="fill:#000000;fill-opacity:1;fill-rule:evenodd;stroke:#000000;stroke-width:1.95906901;stroke-linecap:butt;stroke-linejoin:miter;stroke-miterlimit:4;stroke-opacity:1;stroke-dasharray:none"
   d="m 299.324,162.674 -7.836,-7.836 27.426,7.836 -27.426,7.836 7.836,-7.836 z" /><path
   inkscape:connector-curvature="0"
   id="path3072"
   style="fill:none;stroke:#000000;stroke-width:3.91813707;stroke-linecap:butt;stroke-linejoin:miter;stroke-miterlimit:4;stroke-opacity:1;stroke-dasharray:none"
   d="m 449.633,162.674 137.363,0" /><path
   inkscape:connector-curvature="0"
   id="path3074"
   style="fill:#000000;fill-opacity:1;fill-rule:evenodd;stroke:#000000;stroke-width:1.95906901;stroke-linecap:butt;stroke-linejoin:miter;stroke-miterlimit:4;stroke-opacity:1;stroke-dasharray:none"
   d="m 571.324,162.674 -7.836,-7.836 27.426,7.836 -27.426,7.836 7.836,-7.836 z" /><path
   inkscape:connector-curvature="0"
   id="path3076"
   style="fill:none;stroke:#000000;stroke-width:3.90733695;stroke-linecap:butt;stroke-linejoin:miter;stroke-miterlimit:4;stroke-opacity:1;stroke-dasharray:none"
   d="m 386.125,463.37678 0,123.34022"
   sodipodi:nodetypes="cc" /><g
   transform="matrix(0,1,1,0,0,839.28838)"
   id="g3078"><path
     inkscape:connector-curvature="0"
     id="path3080"
     style="fill:#000000;fill-opacity:1;fill-rule:evenodd;stroke:#000000;stroke-width:1.953668;stroke-linecap:butt;stroke-linejoin:miter;stroke-miterlimit:4;stroke-opacity:1;stroke-dasharray:none"
     d="m -370.234,386.125 7.812,-7.816 -27.351,7.816 27.351,7.813 -7.812,-7.813 z" /></g><path
   inkscape:connector-curvature="0"
   id="path3088"
   style="fill:none;stroke:#000000;stroke-width:4;stroke-linecap:butt;stroke-linejoin:miter;stroke-miterlimit:4;stroke-opacity:1;stroke-dasharray:none"
   d="m 386.125,689.256 0,77.903" /><g
   transform="matrix(0,1,1,0,0,836.08838)"
   id="g3090"><path
     inkscape:connector-curvature="0"
     id="path3092"
     style="fill:#000000;fill-opacity:1;fill-rule:evenodd;stroke:#000000;stroke-width:2;stroke-linecap:butt;stroke-linejoin:miter;stroke-miterlimit:4;stroke-opacity:1;stroke-dasharray:none"
     d="m -130.832,386.125 8,-8 -28,8 28,8 -8,-8 z" /></g><path
   inkscape:connector-curvature="0"
   id="path3094"
   style="fill:#ffffff;fill-opacity:1;fill-rule:nonzero;stroke:#000000;stroke-width:4;stroke-linecap:butt;stroke-linejoin:miter;stroke-miterlimit:4;stroke-opacity:1;stroke-dasharray:none"
   d="m 450.27,230.936 c 0,-11.781 -28.653,-21.336 -64,-21.336 -35.344,0 -64,9.555 -64,21.336 0,11.781 28.656,21.332 64,21.332 35.347,0 64,-9.551 64,-21.332 z" /><path
   inkscape:connector-curvature="0"
   id="path3128"
   style="fill:none;stroke:#000000;stroke-width:4;stroke-linecap:butt;stroke-linejoin:miter;stroke-miterlimit:4;stroke-opacity:1;stroke-dasharray:none"
   d="m 769.203,163.428 74.649,0" /><path
   inkscape:connector-curvature="0"
   id="path3130"
   style="fill:#000000;fill-opacity:1;fill-rule:evenodd;stroke:#000000;stroke-width:2;stroke-linecap:butt;stroke-linejoin:miter;stroke-miterlimit:4;stroke-opacity:1;stroke-dasharray:none"
   d="m 827.852,163.428 -8,-8 28,8 -28,8 8,-8 z" /><path
   inkscape:connector-curvature="0"
   id="path3146"
   style="fill:#ffffff;fill-opacity:1;fill-rule:nonzero;stroke:#ffffff;stroke-width:1.10710895;stroke-linecap:butt;stroke-linejoin:miter;stroke-miterlimit:4;stroke-opacity:1;stroke-dasharray:none"
   d="m 207.816,35.084 c -2.273,0.875 -3.683,2.891 -3.972,5.676 -0.348,3.371 0.402,6.067 2.105,7.567 1.242,1.097 2.61,1.558 4.606,1.558 2.59,0 4.375,-1.144 5.324,-3.414 0.187,-0.461 0.309,-0.879 0.266,-0.926 -0.047,-0.046 -0.551,-0.148 -1.114,-0.226 -0.984,-0.137 -1.043,-0.113 -1.273,0.496 -0.297,0.785 -1.016,1.578 -1.805,1.988 -1.375,0.715 -3.894,0.071 -4.824,-1.234 -0.738,-1.035 -1.188,-3.219 -1.031,-5.043 0.281,-3.324 1.695,-4.988 4.246,-4.988 1.84,0 2.972,0.816 3.551,2.55 l 0.367,1.098 1.027,-0.152 c 0.563,-0.086 1.063,-0.188 1.102,-0.231 0.043,-0.039 -0.094,-0.597 -0.309,-1.238 -1.062,-3.191 -4.855,-4.789 -8.266,-3.481 z" /><path
   inkscape:connector-curvature="0"
   id="path3148"
   style="fill:#ffffff;fill-opacity:1;fill-rule:nonzero;stroke:#ffffff;stroke-width:1.10710895;stroke-linecap:butt;stroke-linejoin:miter;stroke-miterlimit:4;stroke-opacity:1;stroke-dasharray:none"
   d="m 206.336,50.69 0,10.293 2.215,0 0,-3.758 c 0,-2.074 0.074,-3.762 0.172,-3.762 0.09,0.004 0.449,0.301 0.804,0.661 0.977,1 2.258,1.39 4.203,1.293 1.411,-0.071 1.801,-0.184 2.598,-0.743 1.762,-1.25 1.844,-1.609 1.926,-8.359 l 0.078,-5.918 -2.203,0 -0.09,5.477 c -0.074,4.644 -0.144,5.589 -0.469,6.195 -0.984,1.848 -4.222,1.984 -5.836,0.246 -0.91,-0.973 -1.023,-1.66 -1.129,-6.883 l -0.105,-5.035 -2.164,0 0,10.293 z" /><path
   inkscape:connector-curvature="0"
   id="path3150"
   style="fill:#ffffff;fill-opacity:1;fill-rule:nonzero;stroke:#ffffff;stroke-width:1.10710895;stroke-linecap:butt;stroke-linejoin:miter;stroke-miterlimit:4;stroke-opacity:1;stroke-dasharray:none"
   d="m 227.262,44.752 c -1.688,0.602 -2.699,1.516 -3.582,3.235 -0.739,1.437 -0.774,1.605 -0.778,3.855 -0.004,3.09 0.418,4.356 1.977,5.914 1.504,1.504 2.824,1.957 5.297,1.821 2.074,-0.114 3.129,-0.563 4.394,-1.871 1.465,-1.524 1.836,-2.676 1.832,-5.723 0,-2.965 -0.297,-3.949 -1.64,-5.481 -1.629,-1.859 -4.996,-2.644 -7.5,-1.75 z m 4.406,1.938 c 0.855,0.434 1.914,1.738 2.18,2.687 0.125,0.461 0.23,1.735 0.23,2.829 0,1.64 -0.094,2.195 -0.535,3.14 -1.254,2.696 -4.699,3.332 -6.824,1.27 -1.141,-1.11 -1.574,-2.657 -1.449,-5.164 0.148,-2.914 1.14,-4.461 3.214,-5.02 1.133,-0.305 2.254,-0.215 3.184,0.258 z" /><path
   inkscape:connector-curvature="0"
   id="path3152"
   style="fill:#ffffff;fill-opacity:1;fill-rule:nonzero;stroke:#ffffff;stroke-width:1.10710895;stroke-linecap:butt;stroke-linejoin:miter;stroke-miterlimit:4;stroke-opacity:1;stroke-dasharray:none"
   d="m 243.219,63.573 c 0,0.98 0.07,1.082 4.648,6.328 2.559,2.922 4.649,5.387 4.649,5.473 0,0.082 -1.996,0.125 -4.426,0.089 l -4.43,-0.062 0,1.789 11.957,0 0,-0.727 c 0,-0.625 -0.656,-1.492 -4.75,-6.257 -2.613,-3.039 -4.754,-5.579 -4.765,-5.637 0,-0.063 2.234,-0.082 4.976,-0.039 l 4.981,0.078 0,-2.035 -12.84,0 0,1 z" /><path
   inkscape:connector-curvature="0"
   id="path3154"
   style="fill:#ffffff;fill-opacity:1;fill-rule:nonzero;stroke:#ffffff;stroke-width:1.10710895;stroke-linecap:butt;stroke-linejoin:miter;stroke-miterlimit:4;stroke-opacity:1;stroke-dasharray:none"
   d="m 211.844,17.057 c -0.078,0.215 -1.856,4.797 -3.949,10.188 l -3.801,9.797 1.355,0 1.352,-0.004 2.312,-6.473 c 1.27,-3.563 2.735,-7.723 3.25,-9.242 0.52,-1.524 0.996,-2.617 1.063,-2.438 0.062,0.184 0.5,1.43 0.972,2.77 0.469,1.336 1.934,5.347 3.258,8.91 l 2.407,6.477 1.296,0 c 0.715,0 1.25,-0.083 1.192,-0.18 -0.106,-0.168 -6.512,-16.465 -7.481,-19.028 l -0.441,-1.164 -1.316,0 c -1.055,0 -1.352,0.079 -1.469,0.387 z" /><path
   inkscape:connector-curvature="0"
   id="path3156"
   style="fill:#ffffff;fill-opacity:1;fill-rule:nonzero;stroke:#ffffff;stroke-width:1.10710895;stroke-linecap:butt;stroke-linejoin:miter;stroke-miterlimit:4;stroke-opacity:1;stroke-dasharray:none"
   d="m 242.516,43.581 -2.793,7.363 1.109,0.066 c 0.609,0.039 1.156,0.024 1.215,-0.035 0.187,-0.187 4.055,-11.195 4.055,-11.539 0,-0.82 0.398,-0.195 0.949,1.488 0.332,1.004 1.277,3.672 2.101,5.922 l 1.496,4.098 1.157,0.066 c 0.636,0.039 1.16,0.024 1.16,-0.027 0,-0.078 -4.938,-13.156 -5.43,-14.375 -0.117,-0.293 -0.41,-0.387 -1.187,-0.387 l -1.035,0 -2.797,7.36 z" /><path
   inkscape:connector-curvature="0"
   id="path3158"
   style="fill:#ffffff;fill-opacity:1;fill-rule:nonzero;stroke:#ffffff;stroke-width:1.10710895;stroke-linecap:butt;stroke-linejoin:miter;stroke-miterlimit:4;stroke-opacity:1;stroke-dasharray:none"
   d="m 251.434,38.877 c -0.125,0.047 -0.496,0.145 -0.829,0.219 -0.812,0.18 -2.16,1.391 -2.527,2.278 -0.613,1.464 -0.18,3.511 0.957,4.543 0.789,0.71 2.434,1.265 4.742,1.601 1.266,0.191 2.778,0.449 3.356,0.582 1.004,0.238 1.051,0.281 1.051,1.004 0,2.207 -1.512,3.324 -4.235,3.129 -1.808,-0.129 -2.484,-0.52 -3.109,-1.809 -0.457,-0.945 -0.488,-0.961 -1.379,-0.851 -0.5,0.062 -0.992,0.187 -1.094,0.281 -0.312,0.285 0.617,2.059 1.477,2.813 1.078,0.945 2.687,1.39 5.027,1.39 2.117,0 3.067,-0.238 4.141,-1.035 1.222,-0.91 1.261,-1.086 1.406,-6.934 0.109,-4.242 0.215,-5.609 0.492,-6.254 l 0.352,-0.828 -1.172,0 c -1.039,0 -1.199,0.059 -1.426,0.559 -0.141,0.312 -0.258,0.758 -0.258,0.996 0,0.57 -0.058,0.555 -1.164,-0.25 -0.515,-0.375 -1.289,-0.832 -1.715,-1.012 -0.734,-0.316 -3.621,-0.613 -4.093,-0.422 z m 4.226,2.207 c 0.621,0.29 1.34,0.817 1.598,1.18 0.527,0.742 0.914,2.192 0.922,3.461 0.004,0.781 -0.039,0.844 -0.492,0.719 -0.274,-0.078 -1.344,-0.297 -2.379,-0.488 -4.168,-0.786 -5.098,-1.309 -5.09,-2.829 0.008,-2.277 2.742,-3.304 5.441,-2.043 z" /><path
   inkscape:connector-curvature="0"
   id="path3160"
   style="fill:#ffffff;fill-opacity:1;fill-rule:nonzero;stroke:#ffffff;stroke-width:1.10710895;stroke-linecap:butt;stroke-linejoin:miter;stroke-miterlimit:4;stroke-opacity:1;stroke-dasharray:none"
   d="m 263.09,111.667 c 0.039,0.105 0.422,0.949 0.848,1.875 l 0.777,1.679 3.039,0.016 -0.758,-0.942 c -0.418,-0.515 -1.094,-1.363 -1.504,-1.882 -0.648,-0.821 -0.855,-0.942 -1.609,-0.942 -0.477,0 -0.836,0.09 -0.793,0.196 z" /><path
   inkscape:connector-curvature="0"
   id="path3162"
   style="fill:#ffffff;fill-opacity:1;fill-rule:nonzero;stroke:#ffffff;stroke-width:1.10710895;stroke-linecap:butt;stroke-linejoin:miter;stroke-miterlimit:4;stroke-opacity:1;stroke-dasharray:none"
   d="m 282.691,22.772 0,7.418 1.993,0 0,-2.277 1.066,0.996 c 1.332,1.246 2.289,1.574 4.344,1.468 1.949,-0.101 3.172,-0.789 3.941,-2.234 0.477,-0.902 0.504,-1.215 0.574,-6.867 l 0.079,-5.918 -2.473,0 0,5.426 c 0,6.082 -0.11,6.668 -1.356,7.316 -1.101,0.57 -2.875,0.477 -4.05,-0.211 -1.586,-0.933 -1.743,-1.566 -1.856,-7.496 l -0.094,-5.035 -2.168,0 0,7.414 z" /><path
   inkscape:connector-curvature="0"
   id="path3164"
   style="fill:#ffffff;fill-opacity:1;fill-rule:nonzero;stroke:#ffffff;stroke-width:1.10710895;stroke-linecap:butt;stroke-linejoin:miter;stroke-miterlimit:4;stroke-opacity:1;stroke-dasharray:none"
   d="m 288.391,25.553 0,7.418 2.437,0 0,-14.832 -2.437,0 0,7.414 z" /><path
   inkscape:connector-curvature="0"
   id="path3166"
   style="fill:#ffffff;fill-opacity:1;fill-rule:nonzero;stroke:#ffffff;stroke-width:4;stroke-linecap:butt;stroke-linejoin:miter;stroke-miterlimit:4;stroke-opacity:1;stroke-dasharray:none"
   d="m 263.238,129.706 c -0.535,0.433 -1.066,0.886 -1.488,1.433 -0.195,0.34 -0.52,0.563 -0.758,0.86 -0.226,0.242 -0.402,0.539 -0.543,0.835 -0.136,0.344 -0.269,0.676 -0.34,1.04 -0.039,0.39 -0.082,0.773 -0.164,1.156 -0.043,0.371 -0.164,0.722 -0.246,1.082 -0.105,0.301 -0.191,0.609 -0.371,0.875 -0.172,0.269 -0.418,0.472 -0.59,0.742 -0.199,0.281 -0.484,0.473 -0.726,0.711 -0.235,0.223 -0.489,0.414 -0.766,0.582 -0.289,0.164 -0.437,0.473 -0.691,0.672 -0.239,0.226 -0.5,0.418 -0.688,0.691 -0.203,0.219 -0.426,0.426 -0.66,0.61 -0.273,0.242 -0.508,0.523 -0.75,0.797 -0.262,0.332 -0.519,0.671 -0.859,0.925 -0.289,0.219 -0.547,0.473 -0.828,0.703 -0.235,0.215 -0.446,0.457 -0.684,0.664 -0.227,0.258 -0.508,0.458 -0.785,0.649 -0.231,0.082 -0.383,0.269 -0.559,0.426 l 2.805,1.738 c 0.164,-0.152 0.332,-0.293 0.535,-0.395 0.285,-0.21 0.574,-0.414 0.809,-0.679 0.226,-0.219 0.445,-0.442 0.675,-0.656 0.27,-0.239 0.539,-0.473 0.821,-0.696 0.336,-0.285 0.613,-0.625 0.883,-0.972 0.238,-0.262 0.468,-0.524 0.734,-0.754 0.246,-0.215 0.504,-0.426 0.703,-0.684 0.18,-0.242 0.441,-0.41 0.652,-0.625 0.223,-0.215 0.391,-0.473 0.664,-0.633 0.282,-0.191 0.551,-0.394 0.797,-0.636 0.266,-0.247 0.559,-0.469 0.766,-0.774 0.176,-0.262 0.43,-0.461 0.586,-0.738 0.199,-0.305 0.312,-0.641 0.43,-0.981 0.078,-0.367 0.214,-0.711 0.246,-1.086 0.086,-0.386 0.156,-0.765 0.168,-1.164 0.058,-0.34 0.179,-0.648 0.304,-0.965 0.125,-0.277 0.297,-0.539 0.504,-0.761 0.25,-0.297 0.551,-0.539 0.75,-0.879 0.406,-0.531 0.922,-0.973 1.457,-1.371 l -2.793,-1.742 z" /><path
   inkscape:connector-curvature="0"
   id="path3168"
   style="fill:#e6e6e6;fill-opacity:1;fill-rule:nonzero;stroke:#ffffff;stroke-width:4;stroke-linecap:butt;stroke-linejoin:miter;stroke-miterlimit:4;stroke-opacity:1;stroke-dasharray:none"
   d="m 267.492,128.487 c -0.238,0.625 -0.625,1.176 -0.937,1.762 -0.172,0.335 -0.414,0.617 -0.649,0.906 -0.191,0.328 -0.433,0.609 -0.59,0.953 -0.125,0.305 -0.324,0.555 -0.519,0.812 -0.25,0.247 -0.453,0.536 -0.652,0.817 -0.204,0.262 -0.442,0.484 -0.657,0.734 -0.222,0.223 -0.457,0.43 -0.664,0.664 -0.222,0.219 -0.457,0.43 -0.664,0.664 -0.222,0.219 -0.457,0.43 -0.664,0.664 -0.25,0.176 -0.488,0.371 -0.738,0.547 -0.223,0.211 -0.485,0.399 -0.77,0.52 -0.297,0.152 -0.539,0.375 -0.8,0.578 l 2.792,1.754 c 0.239,-0.195 0.485,-0.383 0.762,-0.52 0.285,-0.156 0.559,-0.343 0.801,-0.566 0.258,-0.199 0.535,-0.375 0.773,-0.602 0.215,-0.226 0.442,-0.441 0.664,-0.664 0.215,-0.226 0.442,-0.441 0.665,-0.66 0.218,-0.23 0.445,-0.445 0.664,-0.672 0.23,-0.25 0.468,-0.496 0.675,-0.765 0.2,-0.278 0.407,-0.555 0.649,-0.805 0.211,-0.277 0.414,-0.559 0.555,-0.883 0.14,-0.32 0.378,-0.57 0.55,-0.875 0.25,-0.305 0.489,-0.617 0.668,-0.969 0.305,-0.593 0.676,-1.152 0.946,-1.765 l -2.86,-1.629 z" /><path
   inkscape:connector-curvature="0"
   id="path3170"
   style="fill:#e6e6e6;fill-opacity:1;fill-rule:nonzero;stroke:#ffffff;stroke-width:4;stroke-linecap:butt;stroke-linejoin:miter;stroke-miterlimit:4;stroke-opacity:1;stroke-dasharray:none"
   d="m 277.625,139.139 c -0.668,0.301 -1.34,0.59 -2.012,0.875 -0.398,0.238 -0.832,0.391 -1.258,0.574 -0.332,0.102 -0.675,0.196 -0.984,0.364 -0.301,0.144 -0.57,0.359 -0.801,0.601 -0.226,0.211 -0.515,0.328 -0.773,0.5 -0.219,0.242 -0.508,0.399 -0.746,0.621 -0.25,0.2 -0.473,0.43 -0.715,0.637 -0.281,0.231 -0.621,0.375 -0.875,0.633 -0.227,0.226 -0.516,0.363 -0.773,0.543 -0.286,0.144 -0.489,0.402 -0.77,0.551 -0.277,0.171 -0.508,0.398 -0.762,0.597 -0.23,0.215 -0.441,0.457 -0.679,0.664 -0.204,0.254 -0.395,0.52 -0.586,0.782 -0.137,0.156 -0.282,0.296 -0.414,0.453 l 2.824,1.707 c 0.144,-0.16 0.289,-0.313 0.426,-0.477 0.183,-0.246 0.359,-0.5 0.558,-0.73 0.223,-0.215 0.438,-0.438 0.668,-0.645 0.235,-0.203 0.473,-0.398 0.738,-0.562 0.262,-0.18 0.493,-0.407 0.774,-0.559 0.285,-0.172 0.558,-0.363 0.801,-0.594 0.269,-0.23 0.605,-0.379 0.871,-0.617 0.242,-0.211 0.465,-0.441 0.715,-0.64 0.238,-0.196 0.492,-0.372 0.718,-0.575 0.289,-0.164 0.575,-0.336 0.817,-0.566 0.218,-0.203 0.457,-0.391 0.734,-0.504 0.324,-0.129 0.656,-0.238 0.981,-0.359 0.418,-0.188 0.839,-0.352 1.238,-0.582 0.676,-0.301 1.355,-0.586 2.035,-0.883 l -2.75,-1.809 z" /><path
   inkscape:connector-curvature="0"
   id="path3172"
   style="fill:#e6e6e6;fill-opacity:1;fill-rule:nonzero;stroke:#ffffff;stroke-width:4;stroke-linecap:butt;stroke-linejoin:miter;stroke-miterlimit:4;stroke-opacity:1;stroke-dasharray:none"
   d="m 277.398,137.409 c -0.543,0.429 -1.125,0.804 -1.687,1.199 -0.352,0.184 -0.676,0.402 -1.004,0.621 -0.227,0.23 -0.523,0.359 -0.769,0.574 -0.235,0.199 -0.481,0.383 -0.75,0.547 -0.247,0.258 -0.579,0.387 -0.879,0.57 -0.297,0.176 -0.582,0.364 -0.879,0.536 -0.305,0.152 -0.617,0.285 -0.887,0.496 -0.285,0.211 -0.574,0.418 -0.879,0.601 -0.269,0.192 -0.496,0.434 -0.746,0.645 -0.258,0.176 -0.527,0.332 -0.801,0.48 -0.34,0.125 -0.605,0.387 -0.894,0.598 -0.262,0.215 -0.489,0.473 -0.743,0.691 -0.199,0.25 -0.496,0.383 -0.73,0.59 -0.25,0.231 -0.535,0.414 -0.797,0.629 -0.152,0.09 -0.277,0.215 -0.418,0.324 l 2.789,1.758 c 0.137,-0.113 0.274,-0.226 0.418,-0.328 0.274,-0.203 0.543,-0.41 0.805,-0.629 0.254,-0.195 0.531,-0.359 0.738,-0.605 0.238,-0.227 0.469,-0.461 0.723,-0.668 0.273,-0.211 0.551,-0.426 0.875,-0.559 0.285,-0.168 0.578,-0.324 0.836,-0.539 0.23,-0.211 0.457,-0.426 0.719,-0.602 0.3,-0.199 0.597,-0.406 0.89,-0.621 0.277,-0.175 0.582,-0.304 0.867,-0.468 0.293,-0.18 0.586,-0.36 0.879,-0.532 0.313,-0.172 0.617,-0.351 0.891,-0.586 0.265,-0.179 0.527,-0.367 0.769,-0.578 0.25,-0.183 0.524,-0.34 0.754,-0.551 0.321,-0.226 0.668,-0.41 0.992,-0.628 0.563,-0.395 1.11,-0.805 1.68,-1.184 l -2.762,-1.781 z" /><path
   inkscape:connector-curvature="0"
   id="path3174"
   style="fill:#e6e6e6;fill-opacity:1;fill-rule:nonzero;stroke:#ffffff;stroke-width:4;stroke-linecap:butt;stroke-linejoin:miter;stroke-miterlimit:4;stroke-opacity:1;stroke-dasharray:none"
   d="m 292.004,109.327 c -0.555,0.465 -1.094,0.945 -1.652,1.406 -0.321,0.23 -0.657,0.445 -0.942,0.719 -0.168,0.273 -0.437,0.445 -0.66,0.668 -0.234,0.207 -0.473,0.418 -0.684,0.652 -0.222,0.219 -0.457,0.43 -0.664,0.664 -0.199,0.164 -0.422,0.289 -0.617,0.461 l 2.797,1.75 c 0.215,-0.164 0.449,-0.305 0.641,-0.5 0.215,-0.227 0.441,-0.441 0.664,-0.66 0.215,-0.223 0.445,-0.43 0.676,-0.637 0.23,-0.211 0.476,-0.406 0.652,-0.664 0.293,-0.254 0.617,-0.473 0.926,-0.715 0.535,-0.472 1.066,-0.953 1.64,-1.387 l -2.777,-1.757 z" /><path
   inkscape:connector-curvature="0"
   id="path3176"
   style="fill:#e6e6e6;fill-opacity:1;fill-rule:nonzero;stroke:#ffffff;stroke-width:1.10710895;stroke-linecap:butt;stroke-linejoin:miter;stroke-miterlimit:4;stroke-opacity:1;stroke-dasharray:none"
   d="m 274.789,136.932 c -1.402,0.969 -3.344,2.27 -4.32,2.891 -2.574,1.64 -4.418,2.972 -6.903,4.984 l -2.195,1.781 0.895,0.891 c 0.492,0.488 2.132,1.625 3.644,2.527 l 2.746,1.641 1.461,-1.57 c 0.801,-0.868 2.207,-2.129 3.121,-2.809 0.914,-0.676 2.11,-1.57 2.657,-1.98 0.546,-0.414 2.664,-1.481 4.703,-2.371 l 3.711,-1.622 -0.832,-0.554 c -0.457,-0.301 -0.879,-0.594 -0.938,-0.649 -0.062,-0.05 0.125,-0.285 0.418,-0.523 0.289,-0.235 0.484,-0.477 0.426,-0.531 -0.125,-0.125 -5.938,-3.875 -6.004,-3.871 -0.024,0 -1.191,0.796 -2.59,1.765 z" /><path
   inkscape:connector-curvature="0"
   id="path3178"
   style="fill:#e6e6e6;fill-opacity:1;fill-rule:nonzero;stroke:#ffffff;stroke-width:1.10710895;stroke-linecap:butt;stroke-linejoin:miter;stroke-miterlimit:4;stroke-opacity:1;stroke-dasharray:none"
   d="m 272.461,137.913 c -5.16,3.507 -8.949,6.281 -10.625,7.777 l -1.109,0.992 0.886,0.797 c 1.067,0.961 2.793,2.152 5.246,3.629 l 1.825,1.098 2.109,-2.067 c 3.691,-3.613 6.164,-5.176 12.465,-7.894 0.941,-0.407 1.715,-0.805 1.715,-0.891 0,-0.082 -0.407,-0.422 -0.907,-0.75 -0.839,-0.559 -0.878,-0.629 -0.55,-0.988 0.191,-0.215 0.351,-0.489 0.351,-0.606 0,-0.234 -6.234,-4.297 -6.558,-4.273 -0.106,0.008 -2.289,1.437 -4.848,3.176 z m 7.531,-0.524 c 2.473,1.578 2.75,1.828 2.336,2.086 -0.418,0.258 -0.246,0.922 0.32,1.227 0.305,0.164 0.555,0.363 0.555,0.441 0,0.082 -0.875,0.524 -1.937,0.981 -4.645,1.996 -7.551,3.894 -10.891,7.109 l -1.898,1.828 -2.094,-1.32 c -2.602,-1.641 -4.215,-2.817 -4.215,-3.074 0,-0.481 14.441,-10.793 15.168,-10.825 0.121,-0.008 1.316,0.688 2.656,1.547 z" /><path
   inkscape:connector-curvature="0"
   id="path3180"
   style="fill:#e6e6e6;fill-opacity:1;fill-rule:nonzero;stroke:#ffffff;stroke-width:1.10710895;stroke-linecap:butt;stroke-linejoin:miter;stroke-miterlimit:4;stroke-opacity:1;stroke-dasharray:none"
   d="m 273.902,136.448 c -6.289,4.238 -10.007,6.972 -13.175,9.683 l -0.664,0.571 0.996,0.89 c 0.984,0.879 5.007,3.629 6.785,4.637 l 0.914,0.52 2.406,-2.282 c 3.699,-3.511 5.332,-4.558 12.094,-7.758 1.308,-0.621 2.375,-1.203 2.371,-1.292 -0.008,-0.09 -0.391,-0.461 -0.856,-0.829 -0.753,-0.593 -0.82,-0.718 -0.605,-1.191 0.211,-0.469 0.156,-0.598 -0.496,-1.109 -1.164,-0.914 -6.039,-4.008 -6.313,-4.004 -0.136,0 -1.691,0.976 -3.457,2.164 z m 4.274,0.406 c 0.39,0.199 1.367,0.801 2.172,1.336 1.187,0.797 1.445,1.066 1.371,1.469 -0.051,0.269 0.054,0.687 0.23,0.925 0.309,0.418 0.176,0.516 -2.98,2.145 -3.867,1.992 -5.496,3.109 -8.446,5.789 l -2.16,1.961 -2.601,-1.734 c -1.43,-0.953 -2.699,-1.801 -2.821,-1.891 -0.261,-0.187 -0.492,0.004 4.125,-3.406 4.696,-3.465 9.747,-6.934 10.114,-6.946 0.156,-0.003 0.605,0.153 0.996,0.352 z" /><path
   inkscape:connector-curvature="0"
   id="path3182"
   style="fill:#e6e6e6;fill-opacity:1;fill-rule:nonzero;stroke:#ffffff;stroke-width:1.10710895;stroke-linecap:butt;stroke-linejoin:miter;stroke-miterlimit:4;stroke-opacity:1;stroke-dasharray:none"
   d="m 275.641,138.233 c -2.946,1.922 -11.68,8.234 -11.692,8.445 -0.004,0.106 3.832,2.688 4.215,2.84 0.098,0.035 1.156,-0.793 2.348,-1.844 2.59,-2.281 4.129,-3.332 7.82,-5.328 1.52,-0.824 2.793,-1.515 2.824,-1.539 0.032,-0.019 -0.008,-0.344 -0.082,-0.719 -0.136,-0.679 -1.254,-1.597 -3.113,-2.558 -0.695,-0.36 -0.699,-0.36 -2.32,0.703 z" /><path
   inkscape:connector-curvature="0"
   id="path3184"
   style="fill:#e6e6e6;fill-opacity:1;fill-rule:nonzero;stroke:#ffffff;stroke-width:1.10710895;stroke-linecap:butt;stroke-linejoin:miter;stroke-miterlimit:4;stroke-opacity:1;stroke-dasharray:none"
   d="m 276.559,138.436 c -1.7,1.133 -8.871,6.195 -10.102,7.125 l -1.445,1.094 1.551,1.031 c 0.996,0.66 1.656,0.969 1.839,0.852 0.161,-0.098 1.188,-0.93 2.286,-1.852 2.39,-2 3.582,-2.805 7.089,-4.762 1.461,-0.816 2.696,-1.523 2.743,-1.57 0.156,-0.152 -1.375,-1.449 -2.223,-1.883 -0.992,-0.508 -1.027,-0.508 -1.738,-0.035 z" /><path
   inkscape:connector-curvature="0"
   id="path3186"
   style="fill:#e6e6e6;fill-opacity:1;fill-rule:nonzero;stroke:#ffffff;stroke-width:1.10710895;stroke-linecap:butt;stroke-linejoin:miter;stroke-miterlimit:4;stroke-opacity:1;stroke-dasharray:none"
   d="m 271.773,142.608 c -3.031,2.144 -5.543,3.926 -5.582,3.965 -0.043,0.035 0.379,0.332 0.934,0.656 1.145,0.672 0.988,0.727 3.234,-1.113 2.133,-1.746 3.391,-2.598 6.536,-4.426 2.765,-1.606 2.781,-1.633 1.257,-2.488 l -0.867,-0.489 -5.512,3.895 z" /><path
   inkscape:connector-curvature="0"
   id="path3188"
   style="fill:#e6e6e6;fill-opacity:1;fill-rule:nonzero;stroke:#ffffff;stroke-width:1.10710895;stroke-linecap:butt;stroke-linejoin:miter;stroke-miterlimit:4;stroke-opacity:1;stroke-dasharray:none"
   d="m 272.172,143.124 c -4.027,2.863 -4.859,3.543 -4.488,3.66 0.546,0.175 0.429,0.242 3.214,-1.875 1.227,-0.93 3.348,-2.375 4.719,-3.207 1.371,-0.832 2.492,-1.586 2.492,-1.676 0,-0.16 -0.554,-0.438 -0.847,-0.426 -0.082,0.004 -2.371,1.59 -5.09,3.524 z" /><path
   inkscape:connector-curvature="0"
   id="path3190"
   style="fill:#e6e6e6;fill-opacity:1;fill-rule:nonzero;stroke:#ffffff;stroke-width:1.10710895;stroke-linecap:butt;stroke-linejoin:miter;stroke-miterlimit:4;stroke-opacity:1;stroke-dasharray:none"
   d="m 274.672,137.549 c -5.867,3.946 -12.137,8.633 -12.234,9.153 -0.043,0.222 0.925,1 2.82,2.261 1.586,1.059 2.996,1.922 3.133,1.922 0.14,0 0.879,-0.586 1.648,-1.304 3.141,-2.938 5.078,-4.293 9.645,-6.731 2.765,-1.476 3.019,-1.715 2.664,-2.5 -0.141,-0.305 -0.254,-0.75 -0.254,-0.984 0,-0.653 -3.957,-3.324 -4.903,-3.313 -0.164,0.004 -1.296,0.676 -2.519,1.496 z" /><path
   inkscape:connector-curvature="0"
   id="path3192"
   style="fill:#e6e6e6;fill-opacity:1;fill-rule:nonzero;stroke:#ffffff;stroke-width:1.10710895;stroke-linecap:butt;stroke-linejoin:miter;stroke-miterlimit:4;stroke-opacity:1;stroke-dasharray:none"
   d="m 276.023,137.491 c -2.429,1.461 -11.882,8.301 -12.496,9.039 -0.195,0.234 0.246,0.621 2.172,1.883 1.328,0.875 2.512,1.589 2.633,1.589 0.117,0 1.195,-0.855 2.395,-1.894 2.375,-2.066 4.617,-3.594 8.378,-5.707 2.61,-1.465 2.922,-1.871 2.243,-2.906 -0.325,-0.496 -2.957,-2.352 -3.719,-2.621 -0.215,-0.075 -0.887,0.183 -1.606,0.617 z" /><path
   inkscape:connector-curvature="0"
   id="path3194"
   style="fill:#e6e6e6;fill-opacity:1;fill-rule:nonzero;stroke:#ffffff;stroke-width:1.10710895;stroke-linecap:butt;stroke-linejoin:miter;stroke-miterlimit:4;stroke-opacity:1;stroke-dasharray:none"
   d="m 275.652,138.518 c -3.589,2.32 -11.05,7.828 -11.05,8.156 0,0.239 3.3,2.442 3.656,2.442 0.137,0 0.961,-0.602 1.832,-1.332 2.269,-1.91 4.66,-3.59 7.578,-5.317 3.492,-2.074 3.488,-2.07 3.09,-2.554 -0.547,-0.668 -2.899,-2.313 -3.305,-2.313 -0.211,0 -1.019,0.414 -1.801,0.918 z" /><path
   inkscape:connector-curvature="0"
   id="path3196"
   style="fill:#e6e6e6;fill-opacity:1;fill-rule:nonzero;stroke:#ffffff;stroke-width:1.10710895;stroke-linecap:butt;stroke-linejoin:miter;stroke-miterlimit:4;stroke-opacity:1;stroke-dasharray:none"
   d="m 274.512,140.096 c -3.282,2.215 -8.801,6.317 -8.801,6.547 0,0.09 0.562,0.524 1.25,0.969 l 1.25,0.805 2.234,-1.754 c 1.231,-0.965 3.903,-2.821 5.938,-4.118 2.031,-1.3 3.652,-2.437 3.597,-2.527 -0.121,-0.195 -2.453,-1.754 -2.625,-1.754 -0.07,0 -1.347,0.824 -2.843,1.832 z" /><path
   inkscape:connector-curvature="0"
   id="path3198"
   style="fill:#e6e6e6;fill-opacity:1;fill-rule:nonzero;stroke:#ffffff;stroke-width:1.10710895;stroke-linecap:butt;stroke-linejoin:miter;stroke-miterlimit:4;stroke-opacity:1;stroke-dasharray:none"
   d="m 276.223,139.741 c -1.547,1.035 -6.141,4.312 -7.801,5.566 -1.309,0.988 -1.559,1.274 -1.348,1.527 0.731,0.879 1.008,0.809 3.125,-0.777 1.125,-0.84 3.512,-2.504 5.309,-3.699 1.797,-1.191 3.265,-2.25 3.265,-2.352 0,-0.183 -1.164,-0.855 -1.488,-0.855 -0.097,0 -0.578,0.266 -1.062,0.59 z" /><path
   inkscape:connector-curvature="0"
   id="path3200"
   style="fill:#e6e6e6;fill-opacity:1;fill-rule:nonzero;stroke:#ffffff;stroke-width:0.195711;stroke-linecap:butt;stroke-linejoin:miter;stroke-miterlimit:4;stroke-opacity:1;stroke-dasharray:none"
   d="m 276.871,135.6 c -0.644,0.262 -2.637,1.559 -5.945,3.879 -4.899,3.43 -8.488,6.211 -8.926,6.906 l -0.148,0.239 0.062,0.21 c 0.078,0.266 0.199,0.43 0.531,0.731 0.879,0.797 4.485,3.211 5.582,3.738 0.313,0.153 0.332,0.156 0.493,0.11 0.343,-0.102 0.832,-0.485 2.101,-1.641 3.16,-2.883 4.637,-3.906 9.223,-6.398 1.988,-1.082 2.355,-1.309 2.754,-1.707 0.433,-0.434 0.504,-0.852 0.257,-1.493 -0.074,-0.191 -0.156,-0.461 -0.179,-0.593 -0.11,-0.606 -0.196,-0.762 -0.633,-1.188 -1.109,-1.078 -3.449,-2.547 -4.48,-2.816 -0.297,-0.075 -0.461,-0.071 -0.692,0.023 z m 0.758,4.246 c 0.148,0.074 0.273,0.153 0.273,0.168 0,0.043 -0.879,0.668 -2.093,1.496 -3.395,2.301 -4.414,3.008 -5.832,4.051 -1.258,0.918 -1.735,1.227 -1.989,1.285 -0.082,0.02 -0.133,0 -0.234,-0.094 l -0.129,-0.117 0.082,-0.066 c 0.684,-0.574 1.656,-1.305 3.715,-2.789 3.238,-2.332 5.754,-4.071 5.902,-4.071 0.016,-0.003 0.153,0.059 0.305,0.137 z" /><path
   inkscape:connector-curvature="0"
   id="path3202"
   style="fill:#ececec;fill-opacity:1;fill-rule:nonzero;stroke:#ececec;stroke-width:0.0489278;stroke-linecap:butt;stroke-linejoin:miter;stroke-miterlimit:4;stroke-opacity:1;stroke-dasharray:none"
   d="m 277.27,139.627 c -0.262,0.106 -1.817,1.165 -4.172,2.84 -2.399,1.703 -4.274,3.082 -5.032,3.688 -0.211,0.168 -0.574,0.469 -0.574,0.476 0,0.016 0.262,0.246 0.313,0.274 0.07,0.043 0.148,0.051 0.246,0.019 0.191,-0.058 0.512,-0.246 1.027,-0.605 0.141,-0.098 0.621,-0.445 1.707,-1.231 0.77,-0.558 2.164,-1.523 4.031,-2.793 1.727,-1.175 2.313,-1.578 2.774,-1.914 0.285,-0.207 0.348,-0.261 0.394,-0.32 l 0.036,-0.051 -0.04,-0.047 c -0.019,-0.023 -0.074,-0.066 -0.117,-0.093 -0.093,-0.059 -0.386,-0.203 -0.476,-0.239 l -0.067,-0.023 -0.05,0.023 0,-0.004 z m 0.257,0.274 c 0.102,0.051 0.196,0.101 0.207,0.109 0.02,0.016 0.02,0.016 -0.015,0.043 -0.086,0.067 -0.473,0.348 -0.785,0.563 -0.426,0.301 -0.957,0.668 -2.192,1.504 -2.133,1.449 -3.324,2.277 -4.387,3.05 -1.429,1.036 -1.671,1.204 -1.996,1.399 -0.203,0.121 -0.386,0.199 -0.437,0.183 -0.027,-0.003 -0.145,-0.097 -0.145,-0.113 0,-0.012 0.391,-0.332 0.797,-0.644 1.024,-0.797 4.332,-3.184 6.524,-4.707 1.257,-0.875 2.164,-1.477 2.23,-1.477 0.008,0 0.098,0.039 0.199,0.09 z" /><path
   inkscape:connector-curvature="0"
   id="path3204"
   style="fill:#ececec;fill-opacity:1;fill-rule:nonzero;stroke:#ececec;stroke-width:0.13838901;stroke-linecap:butt;stroke-linejoin:miter;stroke-miterlimit:4;stroke-opacity:1;stroke-dasharray:none"
   d="m 277.195,133.764 c -0.218,0.09 -0.351,0.16 -0.843,0.457 -1.067,0.649 -3.52,2.278 -5.602,3.723 -0.27,0.183 -0.715,0.496 -0.992,0.687 -3.578,2.485 -6.465,4.649 -8.695,6.52 -0.711,0.598 -1.801,1.527 -1.801,1.539 0,0.019 1.332,1.215 1.621,1.453 1.129,0.941 4.441,3.215 6.324,4.336 0.719,0.43 1.609,0.926 1.641,0.914 0.019,-0.008 0.586,-0.539 1.265,-1.184 2.836,-2.695 3.582,-3.355 4.828,-4.292 0.957,-0.719 1.997,-1.383 3.293,-2.098 0.735,-0.402 2.856,-1.473 4.262,-2.145 1.926,-0.922 3.039,-1.496 3.367,-1.738 0.047,-0.035 0.153,-0.141 0.235,-0.242 0.168,-0.199 0.168,-0.18 0.023,-0.488 -0.117,-0.247 -0.359,-0.497 -1.019,-1.047 -0.372,-0.309 -0.485,-0.422 -0.469,-0.453 0.008,-0.024 0.055,-0.153 0.101,-0.278 0.071,-0.207 0.079,-0.265 0.071,-0.457 -0.02,-0.363 -0.149,-0.558 -0.614,-0.949 -0.617,-0.523 -2.593,-1.848 -4.64,-3.113 -1.164,-0.723 -1.758,-1.055 -2.063,-1.157 -0.136,-0.046 -0.144,-0.046 -0.293,0.012 z m 0.668,1.387 c 1.926,1.129 5.157,3.258 5.746,3.793 l 0.118,0.109 -0.086,0.207 c -0.078,0.184 -0.09,0.235 -0.09,0.485 0,0.246 0.008,0.293 0.074,0.429 0.109,0.223 0.242,0.364 0.723,0.762 0.23,0.195 0.418,0.363 0.418,0.379 0,0.043 -0.887,0.492 -2.504,1.269 -6,2.883 -7.617,3.915 -10.864,6.926 -0.679,0.629 -2.179,2.043 -2.55,2.407 l -0.172,0.164 -0.258,-0.145 c -1.762,-1 -5.43,-3.461 -6.707,-4.508 -0.309,-0.254 -0.816,-0.703 -0.816,-0.722 0.003,-0.02 1.347,-1.141 2.027,-1.688 2.715,-2.191 6.949,-5.226 11.715,-8.406 1.238,-0.828 2.664,-1.727 2.738,-1.727 0.016,0 0.234,0.121 0.488,0.266 z" /><path
   inkscape:connector-curvature="0"
   id="path3206"
   style="fill:#ececec;fill-opacity:1;fill-rule:nonzero;stroke:#ececec;stroke-width:0.13838901;stroke-linecap:butt;stroke-linejoin:miter;stroke-miterlimit:4;stroke-opacity:1;stroke-dasharray:none"
   d="m 276.977,135.475 c -0.473,0.133 -2.215,1.238 -5.028,3.192 -5.605,3.886 -9.465,6.851 -10.039,7.71 l -0.152,0.227 0.043,0.141 c 0.109,0.386 0.281,0.617 0.726,0.996 1.071,0.902 4.219,3.004 5.403,3.601 0.363,0.188 0.476,0.207 0.687,0.121 0.356,-0.14 0.719,-0.429 2.199,-1.754 3.223,-2.882 4.368,-3.671 8.997,-6.222 2.167,-1.192 2.433,-1.36 2.828,-1.754 0.461,-0.465 0.539,-0.859 0.3,-1.563 -0.054,-0.156 -0.144,-0.468 -0.195,-0.691 -0.141,-0.582 -0.203,-0.691 -0.609,-1.098 -0.84,-0.832 -2.336,-1.863 -3.625,-2.5 -0.782,-0.386 -1.211,-0.5 -1.535,-0.406 z m 0.695,0.231 c 1.101,0.347 3.281,1.75 4.316,2.777 0.41,0.402 0.469,0.504 0.567,0.949 0.039,0.168 0.125,0.485 0.199,0.699 0.117,0.356 0.129,0.411 0.129,0.664 0,0.25 -0.004,0.293 -0.078,0.442 -0.055,0.113 -0.157,0.242 -0.321,0.402 -0.371,0.371 -0.578,0.5 -2.824,1.738 -4.586,2.528 -5.765,3.344 -8.93,6.184 -0.996,0.891 -1.496,1.316 -1.789,1.527 -0.195,0.137 -0.461,0.266 -0.558,0.266 -0.195,0 -1.602,-0.836 -3.184,-1.898 -1.82,-1.215 -2.836,-2 -3.074,-2.368 -0.035,-0.058 -0.09,-0.179 -0.121,-0.273 l -0.059,-0.172 0.075,-0.129 c 0.222,-0.39 1.582,-1.555 3.636,-3.109 3.52,-2.66 9.086,-6.528 10.782,-7.488 0.257,-0.145 0.527,-0.266 0.648,-0.293 0.121,-0.024 0.352,0.007 0.586,0.082 z" /><path
   inkscape:connector-curvature="0"
   id="path3208"
   style="fill:#e6e6e6;fill-opacity:1;fill-rule:nonzero;stroke:#e6e6e6;stroke-width:0.13838901;stroke-linecap:butt;stroke-linejoin:miter;stroke-miterlimit:4;stroke-opacity:1;stroke-dasharray:none"
   d="m 277.121,139.69 c -1.164,0.644 -9.543,6.68 -9.633,6.934 -0.011,0.027 0.207,0.234 0.309,0.293 0.23,0.132 0.555,-0.051 2.246,-1.266 1.414,-1.02 2.324,-1.656 4.457,-3.113 2.813,-1.922 3.422,-2.352 3.512,-2.481 0.035,-0.051 0.031,-0.062 -0.055,-0.137 -0.082,-0.074 -0.582,-0.328 -0.637,-0.328 -0.015,0 -0.105,0.043 -0.199,0.098 z m 0.402,0.234 c 0.098,0.043 0.172,0.094 0.168,0.106 -0.019,0.054 -0.425,0.34 -3.543,2.476 -2.066,1.414 -3.035,2.094 -4.714,3.301 -0.735,0.527 -1.133,0.789 -1.348,0.879 -0.113,0.051 -0.141,0.051 -0.203,0.02 -0.035,-0.024 -0.07,-0.047 -0.07,-0.059 0,-0.188 9.246,-6.809 9.507,-6.809 0.016,0 0.11,0.039 0.203,0.086 z" /><path
   inkscape:connector-curvature="0"
   id="path3210"
   style="fill:#e6e6e6;fill-opacity:1;fill-rule:nonzero;stroke:#e6e6e6;stroke-width:0.13838901;stroke-linecap:butt;stroke-linejoin:miter;stroke-miterlimit:4;stroke-opacity:1;stroke-dasharray:none"
   d="m 277.059,133.76 c -0.414,0.188 -1.571,0.91 -3.481,2.188 -1.254,0.836 -3.246,2.195 -3.273,2.23 -0.008,0.012 -0.164,0.125 -0.344,0.25 -3.641,2.531 -6.422,4.606 -8.594,6.406 -0.765,0.633 -2.14,1.805 -2.164,1.848 -0.004,0.008 0.172,0.184 0.391,0.383 0.222,0.203 0.414,0.383 0.429,0.402 0.059,0.071 0.782,0.692 1.102,0.95 1.016,0.808 3.723,2.671 5.387,3.71 1,0.622 2.289,1.348 2.351,1.325 0.028,-0.008 0.254,-0.219 1.953,-1.821 1.997,-1.879 2.754,-2.558 3.641,-3.257 1.816,-1.43 3.285,-2.297 6.945,-4.09 4.047,-1.981 4.43,-2.188 4.707,-2.508 0.207,-0.242 0.215,-0.305 0.051,-0.609 -0.137,-0.254 -0.402,-0.532 -1.055,-1.094 -0.257,-0.219 -0.406,-0.364 -0.394,-0.387 0.113,-0.301 0.16,-0.527 0.148,-0.727 -0.031,-0.519 -0.316,-0.816 -1.726,-1.792 -1.672,-1.157 -4.449,-2.903 -5.258,-3.305 -0.441,-0.223 -0.527,-0.231 -0.816,-0.102 z m 0.55,1.324 c 1.422,0.786 5.239,3.29 5.977,3.922 l 0.066,0.059 -0.078,0.187 c -0.066,0.165 -0.074,0.227 -0.074,0.493 -0.004,0.289 0.004,0.32 0.078,0.468 0.094,0.184 0.344,0.45 0.766,0.813 0.164,0.141 0.297,0.266 0.297,0.273 0,0.012 -0.024,0.039 -0.055,0.059 -0.102,0.062 -1.434,0.723 -2.988,1.48 -3.59,1.75 -5.196,2.633 -6.711,3.696 -1.34,0.941 -2.246,1.722 -4.828,4.152 -0.75,0.711 -1.375,1.293 -1.391,1.301 -0.07,0.027 -2.039,-1.199 -3.594,-2.238 -1.765,-1.184 -2.855,-1.977 -3.625,-2.633 -0.402,-0.34 -0.465,-0.403 -0.426,-0.434 0.122,-0.109 0.848,-0.719 1.301,-1.094 2.371,-1.949 5.535,-4.277 9.766,-7.179 2.547,-1.746 5.144,-3.438 5.285,-3.438 0.012,-0.004 0.117,0.051 0.234,0.113 z" /><path
   inkscape:connector-curvature="0"
   id="path3212"
   style="fill:#e6e6e6;fill-opacity:1;fill-rule:nonzero;stroke:#e6e6e6;stroke-width:0.13838901;stroke-linecap:butt;stroke-linejoin:miter;stroke-miterlimit:4;stroke-opacity:1;stroke-dasharray:none"
   d="m 276.996,135.401 c -0.105,0.019 -0.633,0.289 -1.043,0.535 -0.191,0.117 -0.808,0.516 -1.371,0.891 -4.34,2.879 -9.035,6.269 -11.25,8.113 -0.879,0.734 -1.312,1.156 -1.547,1.512 l -0.097,0.148 0.078,0.227 c 0.043,0.121 0.121,0.293 0.175,0.375 0.282,0.445 1.184,1.144 3.313,2.562 1.211,0.805 2.156,1.387 2.668,1.641 0.68,0.336 0.723,0.312 3.09,-1.781 2.566,-2.27 3.648,-3.11 5.301,-4.098 0.578,-0.348 0.632,-0.379 2.945,-1.66 2.734,-1.512 3.015,-1.68 3.398,-2.067 0.18,-0.183 0.266,-0.293 0.344,-0.457 0.105,-0.211 0.105,-0.218 0.105,-0.531 0,-0.316 -0.003,-0.332 -0.218,-1.066 -0.121,-0.43 -0.25,-0.821 -0.301,-0.914 -0.203,-0.387 -1.168,-1.223 -2.234,-1.942 -0.954,-0.64 -2.075,-1.238 -2.672,-1.422 -0.188,-0.058 -0.532,-0.09 -0.684,-0.066 z m 0.504,0.324 c 0.664,0.16 2.047,0.93 3.199,1.774 0.52,0.382 0.871,0.675 1.235,1.039 0.394,0.394 0.449,0.476 0.562,0.914 0.039,0.16 0.129,0.472 0.199,0.695 0.106,0.355 0.121,0.441 0.121,0.664 0,0.231 -0.007,0.266 -0.086,0.414 -0.105,0.199 -0.48,0.567 -0.773,0.766 -0.281,0.183 -0.723,0.437 -2.461,1.406 -2.387,1.328 -3.344,1.891 -4.418,2.605 -1.375,0.915 -2.183,1.559 -4.441,3.551 -1.555,1.375 -1.684,1.477 -1.977,1.629 -0.285,0.145 -0.312,0.137 -0.953,-0.226 -1.98,-1.129 -5.137,-3.344 -5.492,-3.856 -0.086,-0.121 -0.184,-0.367 -0.184,-0.449 0,-0.277 1.758,-1.774 4.399,-3.742 3.804,-2.836 9.05,-6.442 10.254,-7.047 0.367,-0.184 0.515,-0.207 0.816,-0.137 z" /><path
   inkscape:connector-curvature="0"
   id="path3214"
   style="fill:#ffffff;fill-opacity:1;fill-rule:nonzero;stroke:#ffffff;stroke-width:0.391422;stroke-linecap:butt;stroke-linejoin:miter;stroke-miterlimit:4;stroke-opacity:1;stroke-dasharray:none"
   d="m 229.805,98.799 c -2.321,0.344 -4.242,1.86 -5.075,4.012 -0.453,1.164 -0.574,1.941 -0.574,3.656 -0.004,1.297 0.024,1.649 0.172,2.34 0.098,0.449 0.231,0.934 0.289,1.082 l 0.113,0.27 0.403,-0.34 c 0.222,-0.188 0.672,-0.645 1,-1.02 l 0.597,-0.679 -0.074,-0.844 c -0.078,-0.934 0.02,-2.301 0.231,-3.117 0.203,-0.797 0.683,-1.68 1.203,-2.2 0.805,-0.816 1.75,-1.207 2.922,-1.207 0.5,0 0.687,-0.027 0.691,-0.097 0,-0.176 0.481,-1.028 0.785,-1.403 l 0.305,-0.363 -0.59,-0.086 c -0.664,-0.094 -1.734,-0.101 -2.398,-0.004 z" /><path
   inkscape:connector-curvature="0"
   id="path3216"
   style="fill:#ffffff;fill-opacity:1;fill-rule:nonzero;stroke:#ffffff;stroke-width:0.0691943;stroke-linecap:butt;stroke-linejoin:miter;stroke-miterlimit:4;stroke-opacity:1;stroke-dasharray:none"
   d="m 249.516,30.584 0,9.625 13.664,0 0.082,-0.085 c 0.047,-0.047 0.218,-0.204 0.383,-0.348 0.32,-0.289 0.546,-0.512 0.707,-0.703 0.054,-0.067 0.187,-0.199 0.296,-0.293 0.18,-0.16 0.457,-0.43 0.582,-0.574 0.028,-0.036 0.114,-0.102 0.192,-0.161 0.074,-0.054 0.211,-0.148 0.297,-0.218 l 0.16,-0.118 0.191,0.122 c 0.11,0.074 0.203,0.128 0.211,0.132 0.012,0.008 0.16,-0.105 0.332,-0.242 0.832,-0.668 1.043,-0.84 1.125,-0.887 0.336,-0.191 0.414,-0.238 0.555,-0.332 0.168,-0.105 0.441,-0.308 0.566,-0.418 0.043,-0.031 0.215,-0.167 0.387,-0.296 0.168,-0.125 0.363,-0.274 0.43,-0.336 0.172,-0.149 2.109,-2.086 2.371,-2.371 0.445,-0.473 0.539,-0.59 0.871,-1.028 0.105,-0.14 0.238,-0.308 0.301,-0.371 0.297,-0.324 0.648,-0.848 0.863,-1.277 0.066,-0.133 0.168,-0.305 0.238,-0.406 0.067,-0.094 0.125,-0.18 0.137,-0.204 0.012,-0.019 0.016,-0.015 0.023,0.063 l 0.008,0.086 0.836,-0.75 c 1.594,-1.426 4.285,-3.805 5.477,-4.84 l 0.39,-0.34 0,-3.055 -31.675,0 0,9.625 z" /><g
   transform="matrix(1,0,0,-1,0,836.08838)"
   id="g3218"><path
     inkscape:connector-curvature="0"
     id="path3220"
     style="fill:#ffffff;fill-opacity:1;fill-rule:nonzero;stroke:#ffffff;stroke-width:4;stroke-linecap:butt;stroke-linejoin:miter;stroke-miterlimit:4;stroke-opacity:1;stroke-dasharray:none"
     d="m 189.531,682.375 49.383,0 0,66.773 -49.383,0 0,-66.773 z" /></g><g
   transform="matrix(1,0,0,-1,0,836.08838)"
   id="g3222"><path
     inkscape:connector-curvature="0"
     id="path3224"
     style="fill:#ffffff;fill-opacity:1;fill-rule:nonzero;stroke:#ffffff;stroke-width:4;stroke-linecap:butt;stroke-linejoin:miter;stroke-miterlimit:4;stroke-opacity:1;stroke-dasharray:none"
     d="m 262.91,754.016 38.605,0 0,15.996 -38.605,0 0,-15.996 z" /></g><g
   transform="matrix(1,0,0,-1,0,836.08838)"
   id="g3226"><path
     inkscape:connector-curvature="0"
     id="path3228"
     style="fill:#ffffff;fill-opacity:1;fill-rule:nonzero;stroke:#ffffff;stroke-width:4;stroke-linecap:butt;stroke-linejoin:miter;stroke-miterlimit:4;stroke-opacity:1;stroke-dasharray:none"
     d="m 231.613,715.762 48.34,0 0,40.34 -48.34,0 0,-40.34 z" /></g><g
   transform="matrix(1,0,0,-1,0,836.08838)"
   id="g3230"><path
     inkscape:connector-curvature="0"
     id="path3232"
     style="fill:#ffffff;fill-opacity:1;fill-rule:nonzero;stroke:#ffffff;stroke-width:4;stroke-linecap:butt;stroke-linejoin:miter;stroke-miterlimit:4;stroke-opacity:1;stroke-dasharray:none"
     d="m 239.262,687.594 8.695,0 0,21.211 -8.695,0 0,-21.211 z" /></g><g
   transform="matrix(1,0,0,-1,0,836.08838)"
   id="g3234"><path
     inkscape:connector-curvature="0"
     id="path3236"
     style="fill:#ffffff;fill-opacity:1;fill-rule:nonzero;stroke:#ffffff;stroke-width:4;stroke-linecap:butt;stroke-linejoin:miter;stroke-miterlimit:4;stroke-opacity:1;stroke-dasharray:none"
     d="m 251.434,703.938 12.172,0 0,6.605 -12.172,0 0,-6.605 z" /></g><g
   transform="matrix(1,0,0,-1,0,836.08838)"
   id="g3238"><path
     inkscape:connector-curvature="0"
     id="path3240"
     style="fill:#ffffff;fill-opacity:1;fill-rule:nonzero;stroke:#ffffff;stroke-width:4;stroke-linecap:butt;stroke-linejoin:miter;stroke-miterlimit:4;stroke-opacity:1;stroke-dasharray:none"
     d="m 247.262,690.027 5.914,0 0,18.082 -5.914,0 0,-18.082 z" /></g><g
   transform="matrix(1,0,0,-1,0,836.08838)"
   id="g3242"><path
     inkscape:connector-curvature="0"
     id="path3244"
     style="fill:#ffffff;fill-opacity:1;fill-rule:nonzero;stroke:#ffffff;stroke-width:4;stroke-linecap:butt;stroke-linejoin:miter;stroke-miterlimit:4;stroke-opacity:1;stroke-dasharray:none"
     d="m 274.387,733.844 27.129,0 0,19.477 -27.129,0 0,-19.477 z" /></g><g
   transform="matrix(1,0,0,-1,0,836.08838)"
   id="g3246"><path
     inkscape:connector-curvature="0"
     id="path3248"
     style="fill:#ffffff;fill-opacity:1;fill-rule:nonzero;stroke:#ffffff;stroke-width:4;stroke-linecap:butt;stroke-linejoin:miter;stroke-miterlimit:4;stroke-opacity:1;stroke-dasharray:none"
     d="m 279.258,722.715 12.172,0 0,10.781 -12.172,0 0,-10.781 z" /></g><g
   transform="matrix(1,0,0,-1,0,836.08838)"
   id="g3250"><path
     inkscape:connector-curvature="0"
     id="path3252"
     style="fill:#ffffff;fill-opacity:1;fill-rule:nonzero;stroke:#ffffff;stroke-width:4;stroke-linecap:butt;stroke-linejoin:miter;stroke-miterlimit:4;stroke-opacity:1;stroke-dasharray:none"
     d="m 284.82,726.891 13.91,0 0,11.824 -13.91,0 0,-11.824 z" /></g><g
   transform="matrix(1,0,0,-1,0,836.08838)"
   id="g3254"><path
     inkscape:connector-curvature="0"
     id="path3256"
     style="fill:#000000;fill-opacity:1;fill-rule:nonzero;stroke:#000000;stroke-width:2.55999994;stroke-linecap:butt;stroke-linejoin:miter;stroke-miterlimit:4;stroke-opacity:1;stroke-dasharray:none"
     d="m 256.359,687.066 48.938,42.668" /></g><text
   xml:space="preserve"
   style="font-size:28.79999924px;font-style:oblique;font-weight:normal;text-align:center;line-height:125%;letter-spacing:0px;word-spacing:0px;text-anchor:middle;fill:#000000;fill-opacity:1;stroke:none;font-family:Sans;-inkscape-font-specification:Sans Oblique"
   x="389.79288"
   y="-813.06055"
   id="text3401"
   sodipodi:linespacing="125%"
   transform="scale(1,-1)"><tspan
     sodipodi:role="line"
     id="tspan3403"
     x="389.79288"
     y="-813.06055">Suspicious</tspan><tspan
     sodipodi:role="line"
     x="389.79288"
     y="-777.06055"
     id="tspan3405">input</tspan></text>


<text
   xml:space="preserve"
   style="font-size:28.79999924px;font-style:normal;font-weight:normal;text-align:center;line-height:125%;letter-spacing:0px;word-spacing:0px;text-anchor:middle;fill:#000000;fill-opacity:1;stroke:none;font-family:Sans"
   x="387.34995"
   y="-640.93591"
   id="text3407"
   sodipodi:linespacing="125%"
   transform="scale(1,-1)"><tspan
     sodipodi:role="line"
     id="tspan3409"
     x="387.34995"
     y="-640.93591">Data</tspan><tspan
     sodipodi:role="line"
     x="387.34995"
     y="-604.93591"
     id="tspan4153">Collection</tspan></text>


<text
   xml:space="preserve"
   style="font-size:28.79999924px;font-style:oblique;font-weight:normal;text-align:center;line-height:125%;letter-spacing:0px;word-spacing:0px;text-anchor:middle;fill:#000000;fill-opacity:1;stroke:none;font-family:Sans;-inkscape-font-specification:Sans Oblique"
   x="488.92972"
   y="-534.9549"
   id="text3411"
   sodipodi:linespacing="125%"
   transform="scale(1,-1)"><tspan
     sodipodi:role="line"
     id="tspan3413"
     x="488.92972"
     y="-534.9549">Raw</tspan><tspan
     sodipodi:role="line"
     x="488.92972"
     y="-498.9549"
     id="tspan3415">characteristics</tspan></text>


<text
   xml:space="preserve"
   style="font-size:28.79999924px;font-style:normal;font-weight:normal;line-height:125%;letter-spacing:0px;word-spacing:0px;fill:#000000;fill-opacity:1;stroke:none;font-family:Sans"
   x="300.87109"
   y="-385.84592"
   id="text3417"
   sodipodi:linespacing="125%"
   transform="scale(1,-1)"><tspan
     sodipodi:role="line"
     id="tspan3419"
     x="300.87109"
     y="-385.84592">Interpretation</tspan></text>


<text
   xml:space="preserve"
   style="font-size:28.79999924px;font-style:oblique;font-weight:normal;text-align:center;line-height:125%;letter-spacing:0px;word-spacing:0px;text-anchor:middle;fill:#000000;fill-opacity:1;stroke:none;font-family:Sans;-inkscape-font-specification:Sans Oblique"
   x="581.29431"
   y="-352.50339"
   id="text3421"
   sodipodi:linespacing="125%"
   transform="scale(1,-1)"><tspan
     sodipodi:role="line"
     x="581.29431"
     y="-352.50339"
     id="tspan3425">Unknown</tspan><tspan
     sodipodi:role="line"
     x="581.29431"
     y="-316.50339"
     id="tspan4168">Abstraction</tspan></text>


<text
   xml:space="preserve"
   style="font-size:28.79999924px;font-style:oblique;font-weight:normal;text-align:center;line-height:125%;letter-spacing:0px;word-spacing:0px;text-anchor:middle;fill:#000000;fill-opacity:1;stroke:none;font-family:Sans;-inkscape-font-specification:Sans Oblique"
   x="198.01918"
   y="-449.92892"
   id="text3427"
   sodipodi:linespacing="125%"
   transform="scale(1,-1)"><tspan
     sodipodi:role="line"
     x="198.01918"
     y="-449.92892"
     id="tspan3431">Malicious</tspan><tspan
     sodipodi:role="line"
     x="198.01918"
     y="-413.92892"
     id="tspan4172">Abstraction</tspan></text>


<text
   xml:space="preserve"
   style="font-size:28px;font-style:normal;font-weight:normal;text-align:center;line-height:125%;letter-spacing:0px;word-spacing:0px;text-anchor:middle;fill:#000000;fill-opacity:1;stroke:none;font-family:Sans"
   x="385.7778"
   y="-182.45151"
   id="text3433"
   sodipodi:linespacing="125%"
   transform="scale(1,-1)"><tspan
     sodipodi:role="line"
     x="385.7778"
     y="-182.45151"
     id="tspan3439">Behav.</tspan><tspan
     sodipodi:role="line"
     x="385.7778"
     y="-147.45151"
     id="tspan4179">signature</tspan><tspan
     sodipodi:role="line"
     x="385.7778"
     y="-112.45151"
     id="tspan4181">DB</tspan></text>


<text
   xml:space="preserve"
   style="font-size:28.79999924px;font-style:oblique;font-weight:normal;line-height:125%;letter-spacing:0px;word-spacing:0px;fill:#000000;fill-opacity:1;stroke:none;font-family:Sans;-inkscape-font-specification:Sans Oblique"
   x="852.0307"
   y="-155.88091"
   id="text3441"
   sodipodi:linespacing="125%"
   transform="scale(1,-1)"><tspan
     sodipodi:role="line"
     id="tspan3443"
     x="852.0307"
     y="-155.88091">Prediction</tspan></text>


<text
   xml:space="preserve"
   style="font-size:28.79999924px;font-style:normal;font-weight:normal;text-align:center;line-height:125%;letter-spacing:0px;word-spacing:0px;text-anchor:middle;fill:#000000;fill-opacity:1;stroke:none;font-family:Sans"
   x="89.03878"
   y="-171.47316"
   id="text3445"
   sodipodi:linespacing="125%"
   transform="scale(1,-1)"><tspan
     sodipodi:role="line"
     id="tspan3447"
     x="89.03878"
     y="-171.47316">Model</tspan><tspan
     sodipodi:role="line"
     x="89.03878"
     y="-135.47316"
     id="tspan3449">generation</tspan></text>


<text
   xml:space="preserve"
   style="font-size:28.79999924px;font-style:oblique;font-weight:normal;text-align:center;line-height:125%;letter-spacing:0px;word-spacing:0px;text-anchor:middle;fill:#000000;fill-opacity:1;stroke:none;font-family:Sans;-inkscape-font-specification:Sans Oblique"
   x="514.57825"
   y="-118.68206"
   id="text3451"
   sodipodi:linespacing="125%"
   transform="scale(1,-1)"><tspan
     sodipodi:role="line"
     x="514.57825"
     y="-118.68206"
     id="tspan3457">Behav.</tspan><tspan
     sodipodi:role="line"
     x="514.57825"
     y="-82.68206"
     id="tspan4164">signature</tspan></text>


<text
   xml:space="preserve"
   style="font-size:28.79999924px;font-style:normal;font-weight:normal;line-height:125%;letter-spacing:0px;word-spacing:0px;fill:#000000;fill-opacity:1;stroke:none;font-family:Sans"
   x="623.96069"
   y="-156.51065"
   id="text3459"
   sodipodi:linespacing="125%"
   transform="scale(1,-1)"><tspan
     sodipodi:role="line"
     id="tspan3461"
     x="623.96069"
     y="-156.51065">Matching</tspan></text>


<text
   xml:space="preserve"
   style="font-size:38.40000153px;font-style:normal;font-weight:normal;text-align:center;line-height:125%;letter-spacing:0px;word-spacing:0px;text-anchor:middle;fill:#000000;fill-opacity:1;stroke:none;font-family:Sans"
   x="774.13007"
   y="-589.86743"
   id="text3104"
   sodipodi:linespacing="125%"
   transform="scale(1,-1)"><tspan
     sodipodi:role="line"
     x="774.13007"
     y="-589.86743"
     id="tspan3108">Detection</tspan><tspan
     sodipodi:role="line"
     x="774.13007"
     y="-541.86743"
     id="tspan4157">process</tspan></text>

</g></svg>