<?xml version="1.0" encoding="UTF-8" standalone="no"?>
<!-- Generated by dot version 2.8 (Fri Feb  3 22:38:53 UTC 2006) -->

<!-- Title: HasseDiagram Pages: 1 -->

<svg
   xmlns:dc="http://purl.org/dc/elements/1.1/"
   xmlns:cc="http://creativecommons.org/ns#"
   xmlns:rdf="http://www.w3.org/1999/02/22-rdf-syntax-ns#"
   xmlns:svg="http://www.w3.org/2000/svg"
   xmlns="http://www.w3.org/2000/svg"
   xmlns:sodipodi="http://sodipodi.sourceforge.net/DTD/sodipodi-0.dtd"
   xmlns:inkscape="http://www.inkscape.org/namespaces/inkscape"
   width="343pt"
   height="260pt"
   viewBox="0 0 343 260"
   id="svg5014"
   version="1.1"
   inkscape:version="0.48.4 r9939"
   sodipodi:docname="Hasse_diagram_of_powerset_of_3.svg">
  <metadata
     id="metadata5165">
    <rdf:RDF>
      <cc:Work
         rdf:about="">
        <dc:format>image/svg+xml</dc:format>
        <dc:type
           rdf:resource="http://purl.org/dc/dcmitype/StillImage" />
        <dc:title>Hasse diagram</dc:title>
      </cc:Work>
    </rdf:RDF>
  </metadata>
  <defs
     id="defs5163" />
  <sodipodi:namedview
     pagecolor="#ffffff"
     bordercolor="#666666"
     borderopacity="1"
     objecttolerance="10"
     gridtolerance="10"
     guidetolerance="10"
     inkscape:pageopacity="0"
     inkscape:pageshadow="2"
     inkscape:window-width="1920"
     inkscape:window-height="1027"
     id="namedview5161"
     showgrid="false"
     inkscape:zoom="2.9046154"
     inkscape:cx="298.60853"
     inkscape:cy="136.25706"
     inkscape:window-x="-8"
     inkscape:window-y="22"
     inkscape:window-maximized="1"
     inkscape:current-layer="graph0" />
  <title
     id="title5016">Hasse diagram</title>
  <g
     id="graph0"
     class="graph"
     style="font-family:Times-Roman;font-size:14.00;">
    <polygon
       style="fill:#ffffff;stroke:#ffffff;"
       points="-2,262 -2,-2 345,-2 345,262 -2,262"
       id="polygon5019" />
    <!-- xyz -->
    <g
       id="node1"
       class="node">
      <title
         id="title5022">xyz</title>
      <ellipse
         style="fill:none;stroke:black;"
         cx="171"
         cy="22"
         rx="31"
         ry="18"
         id="ellipse5024" />
      <text
         x="171"
         y="27"
         style="text-anchor:middle;font-family:Bitstream Vera Sans"
         id="text5026">{1,2,3}</text>
    </g>
    <!-- yz -->
    <g
       id="node2"
       class="node">
      <title
         id="title5029">yz</title>
      <ellipse
         style="fill:none;stroke:black;"
         cx="293"
         cy="94"
         rx="27"
         ry="18"
         id="ellipse5031" />
      <text
         x="293"
         y="99"
         style="text-anchor:middle;font-family:Bitstream Vera Sans"
         id="text5033">{2,3}</text>
    </g>
    <!-- xyz&#45;&gt;yz -->
    <g
       id="edge3"
       class="edge">
      <title
         id="title5036">xyz-&gt;yz</title>
      <path
         style="fill:none;stroke:black;"
         d="M202,40C224,54 254,71 273,82"
         id="path5038" />
      <polygon
         style="fill:none;stroke:black;"
         points="200,43 193,35 203,37 200,43"
         id="polygon5040" />
    </g>
    <!-- xz -->
    <g
       id="node3"
       class="node">
      <title
         id="title5043">xz</title>
      <ellipse
         style="fill:none;stroke:black;"
         cx="171"
         cy="94"
         rx="27"
         ry="18"
         id="ellipse5045" />
      <text
         x="171"
         y="99"
         style="text-anchor:middle;font-family:Bitstream Vera Sans"
         id="text5047">{1,3}</text>
    </g>
    <!-- xyz&#45;&gt;xz -->
    <g
       id="edge4"
       class="edge">
      <title
         id="title5050">xyz-&gt;xz</title>
      <path
         style="fill:none;stroke:black;"
         d="M171,50C171,59 171,68 171,76"
         id="path5052" />
      <polygon
         style="fill:none;stroke:black;"
         points="168,50 171,40 175,50 168,50"
         id="polygon5054" />
    </g>
    <!-- xy -->
    <g
       id="node4"
       class="node">
      <title
         id="title5057">xy</title>
      <ellipse
         style="fill:none;stroke:black;"
         cx="49"
         cy="94"
         rx="27"
         ry="18"
         id="ellipse5059" />
      <text
         x="49"
         y="99"
         style="text-anchor:middle;font-family:Bitstream Vera Sans"
         id="text5061">{1,2}</text>
    </g>
    <!-- xyz&#45;&gt;xy -->
    <g
       id="edge5"
       class="edge">
      <title
         id="title5064">xyz-&gt;xy</title>
      <path
         style="fill:none;stroke:black;"
         d="M140,40C118,54 88,71 69,82"
         id="path5066" />
      <polygon
         style="fill:none;stroke:black;"
         points="139,37 149,35 142,43 139,37"
         id="polygon5068" />
    </g>
    <!-- y -->
    <g
       id="node6"
       class="node">
      <title
         id="title5071">y</title>
      <ellipse
         style="fill:none;stroke:black;"
         cx="171"
         cy="166"
         rx="27"
         ry="18"
         id="ellipse5073" />
      <text
         x="171"
         y="171"
         style="text-anchor:middle;font-family:Bitstream Vera Sans"
         id="text5075">{2}</text>
    </g>
    <!-- yz&#45;&gt;y -->
    <g
       id="edge8"
       class="edge">
      <title
         id="title5078">yz-&gt;y</title>
      <path
         style="fill:none;stroke:black;"
         d="M264,111C242,125 211,143 192,154"
         id="path5080" />
      <polygon
         style="fill:none;stroke:black;"
         points="263,108 273,106 266,114 263,108"
         id="polygon5082" />
    </g>
    <!-- z -->
    <g
       id="node7"
       class="node">
      <title
         id="title5085">z</title>
      <ellipse
         style="fill:none;stroke:black;"
         cx="293"
         cy="166"
         rx="27"
         ry="18"
         id="ellipse5087" />
      <text
         x="293"
         y="171"
         style="text-anchor:middle;font-family:Bitstream Vera Sans"
         id="text5089">{3}</text>
    </g>
    <!-- yz&#45;&gt;z -->
    <g
       id="edge9"
       class="edge">
      <title
         id="title5092">yz-&gt;z</title>
      <path
         style="fill:none;stroke:black;"
         d="M293,122C293,131 293,140 293,148"
         id="path5094" />
      <polygon
         style="fill:none;stroke:black;"
         points="290,122 293,112 297,122 290,122"
         id="polygon5096" />
    </g>
    <!-- x -->
    <g
       id="node5"
       class="node">
      <title
         id="title5099">x</title>
      <ellipse
         style="fill:none;stroke:black;"
         cx="49"
         cy="166"
         rx="27"
         ry="18"
         id="ellipse5101" />
      <text
         x="49"
         y="171"
         style="text-anchor:middle;font-family:Bitstream Vera Sans"
         id="text5103">{1}</text>
    </g>
    <!-- xz&#45;&gt;x -->
    <g
       id="edge12"
       class="edge">
      <title
         id="title5106">xz-&gt;x</title>
      <path
         style="fill:none;stroke:black;"
         d="M142,111C120,125 89,143 70,154"
         id="path5108" />
      <polygon
         style="fill:none;stroke:black;"
         points="141,108 151,106 144,114 141,108"
         id="polygon5110" />
    </g>
    <!-- xz&#45;&gt;z -->
    <g
       id="edge13"
       class="edge">
      <title
         id="title5113">xz-&gt;z</title>
      <path
         style="fill:none;stroke:black;"
         d="M200,111C222,125 253,143 272,154"
         id="path5115" />
      <polygon
         style="fill:none;stroke:black;"
         points="198,114 191,106 201,108 198,114"
         id="polygon5117" />
    </g>
    <!-- xy&#45;&gt;x -->
    <g
       id="edge16"
       class="edge">
      <title
         id="title5120">xy-&gt;x</title>
      <path
         style="fill:none;stroke:black;"
         d="M49,122C49,131 49,140 49,148"
         id="path5122" />
      <polygon
         style="fill:none;stroke:black;"
         points="46,122 49,112 53,122 46,122"
         id="polygon5124" />
    </g>
    <!-- xy&#45;&gt;y -->
    <g
       id="edge17"
       class="edge">
      <title
         id="title5127">xy-&gt;y</title>
      <path
         style="fill:none;stroke:black;"
         d="M78,111C100,125 131,143 150,154"
         id="path5129" />
      <polygon
         style="fill:none;stroke:black;"
         points="76,114 69,106 79,108 76,114"
         id="polygon5131" />
    </g>
    <!-- phi -->
    <g
       id="node8"
       class="node">
      <title
         id="title5134">phi</title>
      <ellipse
         style="fill:none;stroke:black;"
         cx="171"
         cy="238"
         rx="27"
         ry="18"
         id="ellipse5136" />
      <text
         text-anchor="middle"
         x="171"
         y="243"
         style="font-family:'Bitstream Vera Sans';"
         id="text5138">Ø</text>
    </g>
    <!-- x&#45;&gt;phi -->
    <g
       id="edge19"
       class="edge">
      <title
         id="title5141">x-&gt;phi</title>
      <path
         style="fill:none;stroke:black;"
         d="M78,183C100,197 131,215 150,226"
         id="path5143" />
      <polygon
         style="fill:none;stroke:black;"
         points="76,186 69,178 79,180 76,186"
         id="polygon5145" />
    </g>
    <!-- y&#45;&gt;phi -->
    <g
       id="edge21"
       class="edge">
      <title
         id="title5148">y-&gt;phi</title>
      <path
         style="fill:none;stroke:black;"
         d="M171,194C171,203 171,212 171,220"
         id="path5150" />
      <polygon
         style="fill:none;stroke:black;"
         points="168,194 171,184 175,194 168,194"
         id="polygon5152" />
    </g>
    <!-- z&#45;&gt;phi -->
    <g
       id="edge23"
       class="edge">
      <title
         id="title5155">z-&gt;phi</title>
      <path
         style="fill:none;stroke:black;"
         d="M264,183C242,197 211,215 192,226"
         id="path5157" />
      <polygon
         style="fill:none;stroke:black;"
         points="263,180 273,178 266,186 263,180"
         id="polygon5159" />
    </g>
  </g>
</svg>
